<?xml version="1.0" encoding="UTF-8" standalone="no"?>
<!DOCTYPE svg PUBLIC "-//W3C//DTD SVG 1.1//EN" "http://www.w3.org/Graphics/SVG/1.1/DTD/svg11.dtd">
<svg width="100%" height="100%" viewBox="0 0 7678 7678" version="1.1" xmlns="http://www.w3.org/2000/svg" xmlns:xlink="http://www.w3.org/1999/xlink" xml:space="preserve" xmlns:serif="http://www.serif.com/" style="fill-rule:evenodd;clip-rule:evenodd;stroke-linecap:round;stroke-linejoin:round;stroke-miterlimit:1.5;">
    <g id="Ebene1" transform="matrix(1,0,0,1,-1103.85,-2945.16)">
        <g transform="matrix(0.999962,-0.00875034,0.00875034,0.999962,-637.671,1321.73)">
            <path d="M1690.57,7928.35C1690.57,7928.35 2162.87,7058.32 2367.95,6548.73C2573.03,6039.14 2827.82,5367.97 2827.82,5367.97C2827.82,5367.97 2778.11,5535.77 2790.53,5635.2C2802.96,5734.63 2957.75,5399.91 3206.33,5058.11C3454.91,4716.32 3667.87,4399 3667.87,4399C3667.87,4399 3576.12,4616.7 3511.06,4723.47C3446,4830.23 3427.65,4928.65 3427.65,4928.65C3427.65,4928.65 3704.57,4596.68 3817.17,4431.53C3929.77,4266.38 4240.54,3861.04 4360.44,3706.73C4480.34,3552.42 4835.88,3179.16 4835.88,3179.16C4835.88,3179.16 4664.89,3406.46 4588.77,3555.55C4512.66,3704.64 4530.39,3710.9 4530.39,3710.9C4530.39,3710.9 4923.45,3288.64 5152.83,3040.5C5382.21,2792.35 5610.54,2577.57 5610.54,2577.57C5610.54,2577.57 5204.96,3152.06 5109.04,3307.41C5013.12,3462.76 4928.91,3558.45 4841.09,3714.03C4804.6,3778.67 4563.79,4080.08 4419.91,4254.2C4276.03,4428.32 3939.4,4707.93 3798.64,4893.51C3657.89,5079.1 3137.06,5771.78 3015.08,5944.85C2893.09,6117.93 2711.7,6488.86 2620.99,6623.35C2530.28,6757.85 2487.55,6777.08 2405.13,6849.44C2383.67,6868.27 2332.19,6858.99 2332.19,6858.99L1690.57,7928.35Z" style="fill:rgb(118,140,187);stroke:black;stroke-width:1px;"/>
        </g>
        <path d="M6813.25,3264.56L6813.48,3264.16C6813.48,3264.16 6813.43,3264.26 6813.25,3264.56C6805.76,3277.44 6619.94,3596.7 6492.75,3798.7C6362.94,4004.88 6233.12,4185.61 6164.39,4292.52C6095.66,4399.43 6027.73,4509.1 6027.73,4509.1L5892.64,4736.32C5892.64,4736.32 6026.22,4560.38 6145.15,4397.47C6264.07,4234.56 6291.77,4210.13 6291.77,4210.13C6291.77,4210.13 6013.19,4698.86 5866.57,4902.49C5719.95,5106.13 5304.13,5688.94 5304.13,5688.94C5304.13,5688.94 5692.4,5826.76 6056.91,6069.09C6421.42,6311.42 6645.42,6523.2 6645.42,6523.2C6645.42,6523.2 6875.53,6062.98 7140.26,5580.36C7404.99,5097.74 7651.39,4684.36 7651.39,4684.36C7651.39,4684.36 7588.26,4879.85 7563.82,4991.85C7539.39,5103.85 7545.5,5171.05 7545.5,5171.05C7545.5,5171.05 7700.26,4802.47 7905.93,4503.13C8111.61,4203.78 8197.13,4051.05 8197.13,4051.05C8197.13,4051.05 8136.04,4228.22 8015.9,4531.64C7895.75,4835.05 7773.57,5067.2 7677.86,5327.85C7582.15,5588.51 7207.46,6421.38 7207.46,6421.38C7207.46,6421.38 7309.28,6246.26 7388.7,6142.4C7468.12,6038.55 7523.1,6020.22 7523.1,6020.22C7523.1,6020.22 7400.92,6264.58 7341.86,6386.76C7282.81,6508.95 7097.5,6855.13 7097.5,6855.13C7097.5,6855.13 7180.99,6924.36 7284.84,7024.15C7388.7,7123.93 7435.53,7170.77 7435.53,7170.77C7435.53,7170.77 6940.7,7533.24 6415.32,8060.66C5889.93,8588.08 5796.26,8755.06 5482.66,9070.69C5169.06,9386.33 4906.37,9706.04 4906.37,9706.04L4713.64,9769.51C4713.64,9769.51 4629.39,9850.42 4509.28,9999.73C4389.17,10149 4229.86,10303.3 4229.86,10303.3C4229.86,10303.3 4378.33,10033.1 4465.91,9875.44C4553.49,9717.8 4648.58,9561.83 4738.66,9442.55C4828.74,9323.27 5008.9,9056.36 5008.9,9056.36C5008.9,9056.36 4913.82,9129.76 4834.58,9212.34C4755.34,9294.92 4691.95,9354.14 4691.95,9354.14C4691.95,9354.14 4706.96,9284.91 4849.59,9093.9C4992.22,8902.89 5023.92,8852.84 5079.8,8777.78C5135.69,8702.71 5150.7,8656.83 5150.7,8656.83C5150.7,8656.83 4818.73,8572.59 4591.86,8467.49C4364.98,8362.4 4158.96,8254.8 4158.96,8254.8C4158.96,8254.8 4065.54,8373.24 3984.64,8485.01C3903.73,8596.78 3854.52,8766.93 3750.26,8886.21C3645.99,9005.48 3606.79,9069.71 3606.79,9069.71C3606.79,9069.71 3648.5,8961.28 3673.52,8862.85C3698.54,8764.43 3702.71,8725.23 3702.71,8725.23C3702.71,8725.23 3435.8,9093.06 3329.04,9203.17C3222.27,9313.26 3208.93,9340.79 3105.5,9495.93C3002.07,9651.07 3013.75,9659.42 2952.03,9756.17C2890.3,9852.93 2889.47,9853.76 2855.27,9919.65C2821.07,9985.55 2802.72,10001.4 2802.72,10001.4C2802.72,10001.4 2870.28,9826.23 2937.85,9689.44C3005.41,9552.65 3049.62,9425.87 3100.5,9305.76C3151.38,9185.65 3182.24,9145.61 3247.3,8997.14C3312.36,8848.67 3359.9,8741.08 3401.6,8607.62C3443.31,8474.17 3505.03,8354.06 3565.92,8211.42C3626.81,8068.8 3686.87,8007.07 3686.87,8007.07C3686.87,8007.07 3269.82,7776.86 3075.47,7606.71C2881.13,7436.55 2681.78,7232.2 2681.78,7232.2C2681.78,7232.2 3443.3,6451.07 3756.39,6247.43C4069.48,6043.79 4625.21,5562.2 4962.93,5267.43C5476.56,4819.14 5900.46,4271.16 5991.18,4151.04C6003.25,4130.33 6009.12,4127.07 6009.12,4127.07C6009.12,4127.07 6002.96,4135.45 5991.18,4151.04C5979.4,4171.26 5961.73,4208.08 5937.84,4274.7C5889.48,4409.61 5925.12,4351.07 5925.12,4351.07C5925.12,4351.07 6128.75,4063.43 6301.84,3915.79C6474.94,3768.16 6495.3,3666.34 6650.57,3472.88C6793.05,3295.37 6811.22,3267.88 6813.25,3264.56ZM3204.35,7211.11C3204.35,7211.11 3494.69,6845.2 3924.24,6534.97C4353.78,6224.74 4520.83,6169.06 4520.83,6169.06C4520.83,6169.06 4397.53,6248.6 4158.9,6435.54C3920.26,6622.47 3832.76,6733.83 3832.76,6733.83C3832.76,6733.83 4162.87,6459.4 4421.4,6328.15C4679.92,6196.9 4767.42,6169.06 4902.65,6161.1C5037.88,6153.15 5240.72,6105.42 5455.49,6216.79C5670.26,6328.15 5749.81,6359.97 6052.08,6570.76C6354.35,6781.56 6779.92,7107.7 6779.92,7107.7C6779.92,7107.7 6656.62,7230.99 6417.99,7402.01C6179.35,7573.04 6091.85,7628.72 5976.51,7716.22C5861.17,7803.72 5853.22,7851.45 5853.22,7851.45C5853.22,7851.45 5954.74,7785.79 6026.31,7727.36C6187.16,7596.02 6284.7,7535.4 6338.44,7505.42C6388.18,7477.69 6493.56,7453.72 6493.56,7453.72C6493.56,7453.72 6215.15,7688.38 6040.15,7807.7C5865.15,7927.01 5610.6,8042.36 5447.53,8074.17C5284.47,8105.99 5109.47,8189.51 4795.26,8117.92C4481.06,8046.33 4031.62,7700.31 4031.62,7700.31C4031.62,7700.31 3713.44,7477.58 3534.47,7382.13C3355.49,7286.67 3204.35,7211.11 3204.35,7211.11Z" style="fill:rgb(118,140,187);stroke:black;stroke-width:1px;"/>
        <path d="M4647.13,7188.47C4648.29,7129.65 4655.61,7070.71 4666.34,7012.92C4679.63,6941.34 4698.9,6870.24 4729.79,6804.09C4752.51,6755.45 4781.41,6707.16 4818.98,6668.29C4863.31,6622.41 4918.3,6588.3 4975.85,6561.41C5018.39,6541.54 5063.49,6526.09 5109.96,6518.69C5135.25,6514.67 5161.34,6512.9 5186.89,6515.53C5217.29,6518.66 5246.93,6525.55 5275,6537.78C5391.72,6588.62 5452.25,6717.95 5486.81,6832.87C5493.43,6854.86 5501.28,6886.78 5505.79,6909.3C5512.54,6943.02 5518.73,6979.64 5522.04,7013.89C5546.15,7263.28 5485.71,7516.83 5340.62,7722.31C5328.63,7739.3 5316.15,7755.94 5303.35,7772.33C5293.18,7785.35 5273.38,7807.09 5261.4,7818.47C5251.43,7827.95 5241.32,7837.32 5230.58,7845.9C5171.17,7893.35 5087.85,7932.07 5012.04,7902.16C4988.51,7892.88 4966.34,7875.39 4947.53,7859.38C4906.36,7824.36 4869.2,7785.42 4836.51,7742.37C4798.51,7692.34 4766.3,7637.57 4741.74,7579.72C4711.21,7507.83 4693.39,7431.52 4677.65,7355.3C4663.39,7286.24 4658.1,7258.05 4647.13,7188.47" style="fill:rgb(161,182,227);stroke:black;stroke-width:1px;"/>
        <path d="M7566.3,7420.98C7566.3,7420.98 7721.57,7240.25 7879.39,7016.25C8037.21,6792.25 8151.76,6532.62 8235.76,6423.16C8319.76,6313.71 8528.48,5982.8 8587.03,5868.25C8645.57,5753.71 8762.66,5593.34 8762.66,5593.34C8762.66,5593.34 8645.57,5840.25 8584.48,5970.07C8523.39,6099.89 8480.12,6201.71 8413.94,6306.07C8347.76,6410.44 8310.42,6487.62 8302.32,6506.24C8290.06,6534.39 8276.9,6550.68 8248.48,6621.71C8234.3,6657.16 8245.94,6692.98 8245.94,6692.98C8245.94,6692.98 8322.45,6563.05 8370.66,6489.34C8377.63,6478.69 8419.03,6435.89 8419.03,6435.89C8419.03,6435.89 8373.21,6588.62 8332.48,6670.07C8291.76,6751.53 8238.3,6855.89 8172.12,6972.98C8105.94,7090.07 8037.21,7209.71 7945.57,7385.34C7853.94,7560.98 7785.21,7700.98 7785.21,7718.8C7785.21,7736.62 7839.93,7693.55 7871.76,7634.8C7904.85,7573.71 8014.3,7426.07 8014.3,7426.07C8014.3,7426.07 7912.48,7706.07 7833.57,7820.62C7754.66,7935.16 7652.85,8154.07 7495.03,8352.62C7337.21,8551.16 7319.39,8637.71 7273.57,8680.98C7227.76,8724.25 7118.3,8749.71 7047.03,8833.71C6975.76,8917.71 6863.76,9055.16 6754.3,9192.62C6644.85,9330.07 6555.76,9480.25 6492.12,9556.62C6428.48,9632.98 6227.39,9910.43 6227.39,9910.43C6227.39,9910.43 6576.12,9309.71 6647.39,9146.8C6718.66,8983.89 6861.21,8754.8 6922.3,8652.98C6983.39,8551.16 7197.21,8174.44 7237.94,8070.07C7278.66,7965.71 7370.3,7828.25 7421.21,7703.53C7472.12,7578.8 7566.3,7420.98 7566.3,7420.98Z" style="fill:rgb(118,140,187);stroke:black;stroke-width:1px;"/>
    </g>
</svg>
